<svg width="158" height="40" viewBox="0 0 158 40" fill="none" xmlns="http://www.w3.org/2000/svg">
<mask id="mask0_357_3088" style="mask-type:luminance" maskUnits="userSpaceOnUse" x="52" y="8" width="20" height="24">
<path d="M60.0701 19.6339C59.9545 19.5375 59.8453 19.4348 59.7425 19.3256C59.081 18.6384 58.7727 17.6814 58.7727 16.7308V16.1657C58.7727 14.9775 59.4407 13.8342 60.5582 13.4104C60.8922 13.2819 61.2454 13.2177 61.6179 13.2177C62.607 13.2177 63.4034 13.5324 64.0007 14.1682C64.598 14.7976 64.8999 15.6454 64.8999 16.6987C64.8999 17.2061 64.8228 17.6814 64.6622 18.1181C64.5081 18.5613 64.2962 18.9531 64.0328 19.287C63.7695 19.621 63.4548 19.8843 63.0823 20.077C62.7098 20.2633 62.3051 20.3596 61.862 20.3596C61.2326 20.3596 60.6288 20.1156 60.0637 19.6339M60.16 8.88884C59.2994 9.37054 58.5672 10.0706 57.9827 10.9762C57.9827 10.1027 57.2762 9.39623 56.4028 9.39623H52.7676V31.8304H55.2852C57.212 31.8304 58.7727 30.2697 58.7727 28.3429V22.6396C59.2544 23.5452 59.9416 24.2325 60.8279 24.7077C61.7143 25.183 62.7547 25.4206 63.9558 25.4206C64.9641 25.4206 65.9018 25.2023 66.7689 24.7719C67.6295 24.3416 68.3809 23.7379 69.0103 22.9544C69.6398 22.1772 70.1343 21.2524 70.494 20.1862C70.8536 19.1201 71.0335 17.9704 71.0335 16.7244C71.0335 15.4784 70.8408 14.3673 70.449 13.314C70.0572 12.2607 69.5306 11.3551 68.8562 10.5973C68.1818 9.83939 67.3726 9.24208 66.422 8.81177C65.4715 8.38145 64.4503 8.16309 63.3585 8.16309C62.0932 8.16309 61.0335 8.40715 60.1664 8.88884" fill="white"/>
</mask>
<g mask="url(#mask0_357_3088)">
<path d="M68.4286 1.78041L44.4939 11.548L55.3802 38.224L79.3149 28.4564L68.4286 1.78041Z" fill="url(#paint0_linear_357_3088)"/>
</g>
<mask id="mask1_357_3088" style="mask-type:luminance" maskUnits="userSpaceOnUse" x="72" y="9" width="19" height="18">
<path d="M79.4413 14.0208C79.923 13.5583 80.546 13.3271 81.3039 13.3271C82.0618 13.3271 82.6848 13.5583 83.1664 14.0208C83.1664 14.0208 83.1729 14.0336 83.1793 14.0336C83.8794 14.7144 83.3334 15.9154 82.3508 15.9154H78.5486C78.6514 15.1126 78.9468 14.4832 79.4349 14.0208M77.4632 9.76899C76.3328 10.2443 75.3887 10.8801 74.618 11.6829C73.8472 12.4858 73.2692 13.4235 72.8774 14.496C72.4856 15.5686 72.293 16.7054 72.293 17.9064C72.293 19.024 72.4921 20.0837 72.8903 21.0985C73.2885 22.1068 73.8729 23.006 74.6436 23.7831C75.4144 24.5603 76.3649 25.1768 77.5017 25.6328C78.6385 26.0888 79.9359 26.3136 81.3874 26.3136C83.4298 26.3136 85.151 25.8897 86.5512 25.0484C87.9513 24.207 88.9918 23.1216 89.6661 21.7921L87.2384 21.0985C85.9603 20.7324 84.6244 20.9507 83.449 21.5609C83.449 21.5609 83.4362 21.5673 83.4298 21.5737C82.8517 21.8692 82.2352 22.0169 81.5801 22.0169C80.8864 22.0169 80.2442 21.8242 79.6533 21.4324C79.0624 21.0407 78.7348 20.4048 78.6706 19.5185H90.3277C90.3726 19.268 90.4047 18.979 90.4368 18.6515C90.4689 18.3239 90.4882 18.0028 90.4882 17.6881C90.4882 16.5513 90.2955 15.4594 89.9038 14.419C89.512 13.3785 88.9339 12.4601 88.1697 11.6701C87.3989 10.8801 86.4484 10.2507 85.3116 9.77541C84.1748 9.30014 82.871 9.0625 81.3938 9.0625C79.9166 9.0625 78.5871 9.30014 77.4632 9.77541" fill="white"/>
</mask>
<g mask="url(#mask1_357_3088)">
<path d="M87.901 2.69528L66.2617 11.5261L74.896 32.6838L96.5353 23.8529L87.901 2.69528Z" fill="url(#paint1_linear_357_3088)"/>
</g>
<mask id="mask2_357_3088" style="mask-type:luminance" maskUnits="userSpaceOnUse" x="92" y="9" width="12" height="17">
<path d="M100.147 9.96125C99.2739 10.5586 98.5418 11.4192 97.9509 12.5367V11.8752C97.9509 10.4943 96.8333 9.37679 95.4525 9.37679H92.4531V25.9985H96.0691C97.3857 25.9985 98.4518 24.9324 98.4518 23.6157V16.1398C98.9143 15.5489 99.6208 15.1315 100.571 14.8745C100.873 14.7911 101.188 14.7268 101.509 14.669C102.794 14.4507 103.731 13.3331 103.731 12.0293V9.08778C103.622 9.06851 103.372 9.05566 102.973 9.05566C101.965 9.05566 101.021 9.35753 100.147 9.95483" fill="white"/>
</mask>
<g mask="url(#mask2_357_3088)">
<path d="M102.121 5.11662L86.5293 11.4795L94.0643 29.9434L109.656 23.5805L102.121 5.11662Z" fill="url(#paint2_linear_357_3088)"/>
</g>
<mask id="mask3_357_3088" style="mask-type:luminance" maskUnits="userSpaceOnUse" x="104" y="9" width="19" height="18">
<path d="M111.823 14.0208C112.311 13.5583 112.928 13.3271 113.686 13.3271C114.443 13.3271 115.066 13.5583 115.548 14.0208L115.561 14.0336C116.261 14.7144 115.715 15.9154 114.739 15.9154H110.937C111.039 15.1126 111.335 14.4832 111.823 14.0208ZM109.851 9.76899C108.721 10.2443 107.777 10.8801 107.006 11.6829C106.235 12.4858 105.657 13.4235 105.272 14.496C104.88 15.5686 104.688 16.7054 104.688 17.9064C104.688 19.024 104.887 20.0837 105.285 21.0985C105.683 22.1068 106.267 23.006 107.038 23.7831C107.809 24.5603 108.759 25.1768 109.896 25.6328C111.033 26.0888 112.33 26.3136 113.782 26.3136C115.824 26.3136 117.546 25.8897 118.946 25.0484C120.346 24.207 121.38 23.1216 122.061 21.7921L119.633 21.0985C118.355 20.7324 117.019 20.9507 115.844 21.5609C115.844 21.5609 115.831 21.5673 115.824 21.5737C115.246 21.8692 114.63 22.0169 113.975 22.0169C113.281 22.0169 112.639 21.8242 112.048 21.4324C111.457 21.0407 111.129 20.4048 111.072 19.5185H122.729C122.774 19.268 122.806 18.979 122.838 18.6515C122.87 18.3239 122.883 18.0028 122.883 17.6881C122.883 16.5513 122.69 15.4594 122.298 14.419C121.907 13.3785 121.328 12.4601 120.564 11.6701C119.793 10.8801 118.843 10.2507 117.706 9.77541C116.569 9.30014 115.266 9.0625 113.788 9.0625C112.311 9.0625 110.982 9.30014 109.858 9.77541" fill="white"/>
</mask>
<g mask="url(#mask3_357_3088)">
<path d="M120.284 2.69502L98.6504 11.5234L107.285 32.6811L128.918 23.8527L120.284 2.69502Z" fill="url(#paint3_linear_357_3088)"/>
</g>
<mask id="mask4_357_3088" style="mask-type:luminance" maskUnits="userSpaceOnUse" x="124" y="9" width="18" height="17">
<path d="M132.723 9.76857C131.657 10.2438 130.835 10.9311 130.244 11.8367V11.4513C130.244 10.3016 129.313 9.37679 128.163 9.37679H124.836V25.9985H127.803C129.479 25.9985 130.841 24.6369 130.841 22.9606V16.6729C131.117 15.9792 131.535 15.4076 132.106 14.9645C132.678 14.5213 133.211 14.3029 133.718 14.3029C134.226 14.3029 134.63 14.4892 134.997 14.8553C135.363 15.2214 135.549 15.8187 135.549 16.6408V23.3588C135.549 24.8167 136.731 25.9985 138.189 25.9985H141.554V15.0608C141.554 14.4892 141.503 13.8598 141.393 13.1661C141.284 12.4725 141.059 11.8174 140.713 11.2072C140.366 10.5971 139.858 10.0833 139.197 9.67223C138.535 9.26119 137.636 9.05566 136.493 9.05566C135.041 9.05566 133.783 9.2933 132.716 9.76857" fill="white"/>
</mask>
<g mask="url(#mask4_357_3088)">
<path d="M139.17 3.21188L118.916 11.4773L127.228 31.8441L147.481 23.5787L139.17 3.21188Z" fill="url(#paint4_linear_357_3088)"/>
</g>
<mask id="mask5_357_3088" style="mask-type:luminance" maskUnits="userSpaceOnUse" x="143" y="9" width="15" height="17">
<path d="M144.116 9.37695V10.7771C144.116 12.2735 145.33 13.4874 146.826 13.4874H151.226L145.542 20.2119C144.315 21.6634 143.641 23.5003 143.641 25.4014V25.9987H157.764V25.0481C157.764 23.3076 156.351 21.8946 154.61 21.8946H149.928L155.413 15.3757C156.749 13.7893 157.481 11.7854 157.481 9.71735V9.38338H144.116V9.37695Z" fill="white"/>
</mask>
<g mask="url(#mask5_357_3088)">
<path d="M155.745 4.43488L137.822 11.749L145.653 30.9384L163.576 23.6242L155.745 4.43488Z" fill="url(#paint5_linear_357_3088)"/>
</g>
<mask id="mask6_357_3088" style="mask-type:luminance" maskUnits="userSpaceOnUse" x="-1" y="18" width="29" height="23">
<path d="M16.6082 20.9763L1.07837 36.5126C-0.803455 38.3944 -0.167617 39.9294 2.49134 39.9422L14.3667 40C16.3642 40.0129 18.2845 39.2679 19.7617 37.932L26.5247 31.7855L26.6982 30.0257L27.6359 25.7419V23.3976C27.6359 22.6911 27.2312 21.702 26.7303 21.2011L24.0585 18.4972L22.0353 18.0411C21.9454 18.0219 21.8427 18.009 21.7335 18.009C20.5196 18.009 18.3359 19.2614 16.6082 20.9827" fill="white"/>
</mask>
<g mask="url(#mask6_357_3088)">
<path d="M12.969 3.79329L-11.7969 29.3497L13.861 54.214L38.627 28.6575L12.969 3.79329Z" fill="url(#paint6_linear_357_3088)"/>
</g>
<mask id="mask7_357_3088" style="mask-type:luminance" maskUnits="userSpaceOnUse" x="0" y="0" width="35" height="33">
<path d="M3.35775 0.0513809C1.89982 0.0513809 0.814396 0.160565 0.92358 0.289017C1.1291 0.526654 1.34105 0.796403 1.57869 1.03404C5.17535 4.64997 10.018 9.50546 12.3815 11.8754C15.7727 15.2537 20.352 19.7752 22.6063 21.9653C24.8093 24.0976 26.2351 28.4265 25.7919 31.6378C25.7919 31.8497 25.8176 32.0424 25.8497 32.0552C25.9075 32.0809 26.0296 32.1387 26.0874 32.1644C26.1195 32.1773 26.5626 31.7662 27.0764 31.2396C28.0077 30.289 29.851 28.3687 31.7328 26.4804C35.8561 22.3507 35.869 16.2685 31.7649 12.903C28.5344 9.63391 24.1991 5.24085 22.0861 3.08285C20.3841 1.34875 17.6095 0.00642261 15.8947 0.0834939C13.133 0.032113 10.1657 0 7.73797 0C5.81118 0 4.2248 0.0192678 3.35133 0.0513809" fill="white"/>
</mask>
<g mask="url(#mask7_357_3088)">
<path d="M24.2253 -16.518L-14.3438 10.6895L12.4639 48.6917L51.0329 21.4842L24.2253 -16.518Z" fill="url(#paint7_linear_357_3088)"/>
</g>
<mask id="mask8_357_3088" style="mask-type:luminance" maskUnits="userSpaceOnUse" x="32" y="2" width="20" height="16">
<path d="M39.5056 2.96755C38.5679 2.98681 37.3348 3.44924 36.7503 3.99516C34.9456 5.62651 33.0252 7.61109 32.4536 8.41392C31.9655 8.92773 32.1774 9.89754 32.9353 10.5719C34.3097 11.7986 36.9045 14.5218 37.0971 16.622C37.1999 17.7781 38.4716 17.5148 39.9295 16.0247C42.5756 13.3336 47.7201 8.10563 50.2763 5.5109C51.6893 4.07866 51.8563 2.91617 50.6553 2.91617C49.5185 2.91617 47.7394 2.90332 45.6649 2.90332C43.7767 2.90332 41.6379 2.91617 39.5056 2.96755Z" fill="white"/>
</mask>
<g mask="url(#mask8_357_3088)">
<path d="M31.9817 2.24222L31.4668 17.7635L51.8281 18.439L52.343 2.91768L31.9817 2.24222Z" fill="url(#paint8_linear_357_3088)"/>
</g>
<mask id="mask9_357_3088" style="mask-type:luminance" maskUnits="userSpaceOnUse" x="31" y="22" width="22" height="15">
<path d="M37.1349 22.8003C37.0257 24.9455 34.4117 27.6558 32.8317 29.133C31.9583 29.9487 31.5536 30.8735 31.939 31.2011C32.6262 31.792 33.975 32.7168 35.0154 33.9114C36.2486 35.3244 38.246 36.4162 39.4856 36.3456C43.8337 36.4419 48.702 36.4612 50.359 36.3777C51.5601 36.3777 52.5556 36.3456 52.5813 36.3135C52.6262 36.2492 52.7226 36.1208 52.7739 36.0566C52.7996 36.018 51.6757 34.862 50.2563 33.4683C47.6937 30.9442 42.5684 25.9024 39.9095 23.2756C39.0809 22.4599 38.3231 22.036 37.8093 22.036C37.4175 22.036 37.167 22.2865 37.1413 22.8003" fill="white"/>
</mask>
<g mask="url(#mask9_357_3088)">
<path d="M31.5813 21.3309L31.0801 36.4414L52.7766 37.1612L53.2778 22.0506L31.5813 21.3309Z" fill="url(#paint9_linear_357_3088)"/>
</g>
<defs>
<linearGradient id="paint0_linear_357_3088" x1="65.778" y1="28.4472" x2="86.1382" y2="78.3384" gradientUnits="userSpaceOnUse">
<stop stop-color="#950067"/>
<stop offset="1" stop-color="#5E035E"/>
</linearGradient>
<linearGradient id="paint1_linear_357_3088" x1="83.256" y1="21.3385" x2="103.616" y2="71.2297" gradientUnits="userSpaceOnUse">
<stop stop-color="#950067"/>
<stop offset="1" stop-color="#5E035E"/>
</linearGradient>
<linearGradient id="paint2_linear_357_3088" x1="97.718" y1="15.4271" x2="118.078" y2="65.3182" gradientUnits="userSpaceOnUse">
<stop stop-color="#950067"/>
<stop offset="1" stop-color="#5E035E"/>
</linearGradient>
<linearGradient id="paint3_linear_357_3088" x1="111.197" y1="9.93636" x2="131.557" y2="59.8275" gradientUnits="userSpaceOnUse">
<stop stop-color="#950067"/>
<stop offset="1" stop-color="#5E035E"/>
</linearGradient>
<linearGradient id="paint4_linear_357_3088" x1="128.149" y1="3.00147" x2="148.509" y2="52.8926" gradientUnits="userSpaceOnUse">
<stop stop-color="#950067"/>
<stop offset="1" stop-color="#5E035E"/>
</linearGradient>
<linearGradient id="paint5_linear_357_3088" x1="143.095" y1="-3.11585" x2="163.455" y2="46.7753" gradientUnits="userSpaceOnUse">
<stop stop-color="#950067"/>
<stop offset="1" stop-color="#5E035E"/>
</linearGradient>
<linearGradient id="paint6_linear_357_3088" x1="5.59948" y1="35.0784" x2="28.3362" y2="11.6159" gradientUnits="userSpaceOnUse">
<stop stop-color="#9B1561"/>
<stop offset="1" stop-color="#370036"/>
</linearGradient>
<linearGradient id="paint7_linear_357_3088" x1="28.5593" y1="29.2648" x2="46.2447" y2="54.3355" gradientUnits="userSpaceOnUse">
<stop stop-color="#9B1561"/>
<stop offset="1" stop-color="#370036"/>
</linearGradient>
<linearGradient id="paint8_linear_357_3088" x1="74.035" y1="11.0942" x2="-2.48037" y2="8.55589" gradientUnits="userSpaceOnUse">
<stop stop-color="#950067"/>
<stop offset="1" stop-color="#5E035E"/>
</linearGradient>
<linearGradient id="paint9_linear_357_3088" x1="73.4216" y1="30.2143" x2="-3.09382" y2="27.6761" gradientUnits="userSpaceOnUse">
<stop stop-color="#950067"/>
<stop offset="1" stop-color="#5E035E"/>
</linearGradient>
</defs>
</svg>
